<svg width="10" height="11" fill="none" xmlns="http://www.w3.org/2000/svg"><path d="M3.569 2.362c.46-.921.69-1.382 1.002-1.53a1 1 0 0 1 .858 0c.311.148.541.609 1.002 1.53l.33.661c.089.177.133.265.192.342a1 1 0 0 0 .182.182c.077.059.165.103.342.192l.66.33c.922.46 1.383.69 1.53 1.002a1 1 0 0 1 0 .858c-.147.311-.608.541-1.53 1.002l-.66.33a2.111 2.111 0 0 0-.342.192 1 1 0 0 0-.182.182c-.059.077-.103.165-.192.342l-.33.66c-.46.922-.69 1.383-1.002 1.53a1 1 0 0 1-.858 0c-.311-.147-.541-.608-1.002-1.53l-.33-.66a2.111 2.111 0 0 0-.192-.342 1 1 0 0 0-.182-.182 2.111 2.111 0 0 0-.342-.192l-.66-.33C.94 6.471.48 6.241.332 5.93a1 1 0 0 1 0-.858C.48 4.76.94 4.53 1.863 4.07l.66-.33c.177-.089.265-.133.342-.192a1 1 0 0 0 .182-.182c.059-.077.103-.165.192-.342l.33-.66Z" fill="#826DD4"/></svg>